<svg width="35" height="34" fill="none" xmlns="http://www.w3.org/2000/svg"><path d="M.306 13.953a16.044 16.044 0 0 0 0 6.232l4.176-3.165-4.176-3.067ZM24.852 1.586C19.963-.59 14.259-.59 9.269 1.982l7.638 5.54 7.945-5.936ZM34.528 13.062l-4.889 3.66 4.99 3.66c.51-2.373.51-4.946-.101-7.32ZM9.37 32.057c4.89 2.473 10.899 2.671 15.991.099l-8.25-6.035-7.74 5.936ZM8.046 14.249 1.732 9.698c-.306.692-.612 1.385-.815 2.078l5.398 3.957 1.731-1.484ZM18.945 24.835l8.453 6.134c.306-.198.611-.396.815-.594.306-.198.611-.495.917-.791l-8.454-6.134-1.731 1.385ZM11.611 11.578 4.074 6.137c-.51.495-.917 1.088-1.324 1.682l7.028 5.144 1.833-1.385ZM22.51 22.163l8.25 6.035c.509-.494.916-1.088 1.324-1.681l-7.843-5.739-1.732 1.386ZM15.176 8.907 7.333 3.169c-.203.099-.407.297-.61.396-.408.296-.816.593-1.121.989l7.843 5.64 1.731-1.287ZM26.074 19.394l7.13 5.144c.306-.692.611-1.286.917-1.979l-6.213-4.55-1.834 1.385ZM26.89 2.674.916 22.362c.203.692.509 1.385.815 2.077L28.722 3.96c-.509-.494-1.12-.89-1.833-1.286ZM31.269 6.532c-.306-.395-.611-.791-.917-1.088L2.852 26.22c.204.494.51.89.815 1.187.102.198.305.396.407.494L31.778 7.127c-.204-.198-.305-.396-.51-.594ZM32.898 8.907 5.704 29.484c.509.495 1.12.99 1.731 1.385l26.482-19.984c-.306-.692-.611-1.385-1.019-1.978Z" fill="#63D1BB"/></svg>