<svg width="149" height="72" fill="none" xmlns="http://www.w3.org/2000/svg"><path d="M144.16 31.105c-1.51 1.086-3.121 1.876-4.732 2.764 0-1.678-.1-3.455-.604-5.034.101-.296.101-.691.101-.987.403-2.962.705-7.009-2.013-9.082-.302-.296-1.208 0-1.913.296-.201-.197-.302-.296-.503-.395-.101-.197-.201-.493-.201-.69 0-.1-.202-.198-.403-.198.302-.395.302-.79-.403-1.086-.402-.197-.805-.296-1.107-.395-.101-.098-.101-.098-.201-.098-.906-.296-1.913-.494-2.92-.691.101-.296.403-.79.604-.988.101-.197.302-.296.403-.394l.201-.198s.101 0 .101-.098l.101-.1c.402-.295.805-.888.201-1.184-.604-.296-1.51-.099-2.013.198-.906.69-1.611 1.382-2.114 2.369-2.013-.198-4.027-.198-6.141-.099.101-.099.101-.197.101-.296.201-.592-.906-.494-1.208-.494-1.611.198-3.121.395-4.731.593 1.409-3.752 3.12-8.49 1.006-12.142-1.208-2.073-3.925-2.567-6.14-2.665-2.416-.1-4.933.493-7.047 1.58-4.831 2.566-7.147 7.6-8.254 12.93-.503-.69-2.315-.394-2.617.494-.1.296-.202.592-.302.987-.202.198-.302.395-.302.593v.197h-.202c0-.099 0-.198.101-.296.1-.099.201-.198.302-.395.604-2.27 1.208-4.54 1.913-6.713.302-.79-2.517-.394-2.819.395-.403 1.185-.805 2.37-1.107 3.554-.201.099-.403.197-.403.296v.099a.777.777 0 0 0-.503-.198v-.987c0-.395-2.819 0-2.819.79v1.58c-.201.098-.302.197-.503.296l-.201.197c-.101.099-.101.197-.101.197v.1l-.1.098c-.101.098-.202.296 0 .493.2.198.503.198.704.198h.1v.493h-.704l-.403-.098c0-.395-.704-.494-1.41-.296v-.1c-.1-.592-.2-1.184-.2-1.776.2-.099.503-.197.704-.296.202-.099.302-.198.302-.395v-.197c0-.198-.402-.198-.503-.198h-.604c-.1-1.283-.1-2.566-.1-3.85 0-.79-2.82-.296-2.82.79 0 1.777 0 3.554.202 5.232h-.302v-1.48c0-.988-1.309-1.185-2.114-.79.302-.297.503-.593.403-.988-.403-1.382-.806-2.764-1.007-4.244-.201-1.382-3.02-.691-2.819.79.202 1.48.605 2.862 1.007 4.244.201.79 1.309.888 2.114.494-.201.197-.403.493-.403.79v.591c-.302-.296-.503-.296-.906-.296-1.107 0-1.71.889-1.409 1.481-.201 0-.302-.099-.503-.099-.403-1.184-.705-2.467-.705-3.75 0-.89-1.308-.988-2.114-.692v-.197c-.402-.79-.604-1.678-.805-2.468-.302-1.283-3.221-.592-2.819.79.202.592.302 1.283.504 1.875h-.101c-.302.099-.604.198-.906.395-.805.099-1.812.592-1.812 1.185.1.493.1.987.201 1.382-.402.098-1.006.098-1.51.197a10.25 10.25 0 0 1-.603-2.37c-.101-.887-1.611-.887-2.316-.295-.805-2.073-1.812-3.949-3.12-5.726-2.718-3.356-7.248-4.54-11.375-3.652-1.913.395-3.725 1.185-5.034 2.567-1.208 1.382-1.409 3.06-1.208 4.738.202 1.48.604 3.948 1.611 5.923-.403 0-.705 0-.906.098-.302.099-.604.198-.805.395-1.913 0-3.926 0-5.839-.099-4.228-.197-8.355-.888-12.583-.69-.906 0-1.51.69-1.51 1.283a4.267 4.267 0 0 0-2.114 2.27c-1.711-1.086-3.523-2.27-5.335-3.159-.704-.394-3.322.691-2.315 1.185 1.812.888 3.624 2.073 5.335 3.159.503.296 1.309.098 1.812-.099 0 0 .1 0 .201-.099-.302 1.382-.201 3.06.202 4.442 0 .1.1.198.201.297v1.184c-.403.197-.705.494-.805.79a28.728 28.728 0 0 0-.302 4.146c-.302.197-.504.493-.504.79-.201 3.257 0 6.613.504 9.87.201 2.666.704 5.233 1.208 7.898.1.395.1.79.201 1.283-.302 1.086-.403 2.37-.201 3.455-.906.198-1.712.889-1.208 1.58.805 1.184 1.61 1.974 2.617 2.566-.604-.099-1.41.099-1.913.592-.805.79-1.711 1.481-2.516 2.27-.403.395-.302.89.302 1.087.704.197 1.51-.1 2.013-.494.805-.79 1.711-1.48 2.517-2.27.2-.198.302-.494.2-.691 3.222 1.678 7.249 1.283 11.175.888-.906 1.58-1.51 3.258-2.215 4.936-.302.69 2.517.394 2.819-.395.604-1.678 1.208-3.258 2.113-4.837 3.725.099 7.55.099 11.275.099.1.197.403.296.705.296 3.322.296 6.543-.099 9.764-.691 4.832-.198 9.664-.494 14.496-.79 7.55-.197 15.2-.296 22.75-.296l.302.296c.302.296.604.296 1.006.296h.202c.704 0 1.409.099 2.114.099.2 0 .302.099.604 0 .805.099 1.61.099 2.315.197.201.198.503.296.805.395 3.825.296 7.651.494 11.476.691.101.198.503.296.805.296 7.147.099 15.402 2.764 21.744-1.678.503-.395.302-.888-.302-.987h-.302c1.208-2.764 2.214-5.528 2.919-8.49.403-.197.604-.493.604-.888 0-1.184.201-2.369.403-3.553.201-.889.302-1.777.402-2.666.403-2.171.805-4.343 1.007-6.416 2.315-1.086 4.53-2.27 6.644-3.751 1.61-1.185-.806-1.876-1.812-1.185ZM88.392 16.298l-.1.099c.1-.296.1-.592.2-.888h.101c0 .197-.1.493-.201.79Z" fill="#000"/><path d="M63.729 12.547c.1.197.604.197.805.197.403 0 .806-.098 1.108-.197.402-.198 1.107-.593.805-1.086-.403-.592-.604-1.185-1.007-1.777-.1-.197-.604-.197-.805-.197-.403 0-.805.098-1.107.197-.403.198-1.108.592-.806 1.086.302.592.604 1.283 1.007 1.777ZM20.846 10.87c.201.591 1.107.591 1.61.493.504-.1 1.41-.593 1.209-1.284-.202-.592-.403-1.283-.906-1.776-.504-.494-1.309-.395-1.913-.198-.403.198-1.208.79-.705 1.283.403.593.504.889.705 1.481ZM30.912 13.83c.806 0 3.121-1.283 1.208-1.283-.906 0-3.12 1.284-1.208 1.284ZM123.423 12.251c.302.099.705 0 1.107-.098.302-.1.705-.198.906-.494.403-.395.705-.691 1.007-1.185.101-.197.201-.395 0-.592-.201-.197-.503-.197-.805-.296-.403 0-.806.099-1.108.197a1.56 1.56 0 0 0-.805.593c-.101.197-.201.395-.403.493l-.201.198c-.201.197-.302.394-.302.592.101.395.302.493.604.592ZM136.811 17.582c.604-.1 1.409-.198 1.913-.691 1.308-1.086 2.617-2.172 3.623-3.554.302-.395-1.006-.197-1.107-.197-.503.098-1.308.296-1.711.69-.906 1.284-2.215 2.27-3.423 3.357-.503.395.403.395.705.395ZM147.682 44.333h-4.932c-.604 0-1.51.494-1.611 1.086-.1.691.806.889 1.309.889h4.932c.604 0 1.51-.494 1.611-1.086.101-.691-.705-.889-1.309-.889ZM57.387 60.127c-.503.098-1.409.296-1.61.79-.504 1.283-1.007 2.566-1.41 3.85-.2.69 2.618.296 2.82-.494.402-1.283.804-2.567 1.408-3.85.202-.494-1.006-.296-1.208-.296ZM62.018 62.694c-.302 0-.705.098-1.007.197-.302.099-.705.197-1.007.395-.1.099-.301.197-.301.395v.296c0 .099-.101.197-.101.296-.1.099-.1.197 0 .296.201.099.503.099.705.099.402 0 .704-.099 1.107-.296.201-.1.604-.198.805-.395.1-.198.201-.296.302-.494v-.493c0-.297-.403-.297-.503-.297ZM117.483 66.346c-.402-.691-3.019.296-2.818.79.805 1.579 1.912 3.06 2.919 4.639.403.69 3.02-.395 2.819-.79-1.007-1.58-2.114-3.06-2.92-4.64ZM121.51 63.977c-.302-.593-1.107-.593-1.61-.395-.403.099-1.51.592-1.208 1.184.402.79.805 1.58 1.208 2.27.302.593 1.107.593 1.61.396.403-.1 1.51-.593 1.208-1.185-.402-.69-.805-1.48-1.208-2.27ZM5.746 42.654c-1.51.395-3.02.593-4.53.987-.503.1-1.308.593-1.207 1.284.2.69 1.107.69 1.71.592 1.51-.395 3.02-.592 4.53-.987.504-.099 1.31-.691 1.209-1.283-.302-.691-1.208-.691-1.712-.593Z" fill="#000"/><path d="M44.1 39.692c-.101-2.665-.504-5.33-.504-7.996 0-2.171.403-4.442-.402-6.515 0-.197.1-.493.1-.69.202-1.087-3.322-.494-3.825.493-.302.296-.503.592-.403.987 0 .099.101.198.101.296-.705 3.159-1.61 6.318-2.617 9.378-.403 1.184-.906 2.37-1.309 3.554-.604-1.086-1.208-2.172-1.711-3.357-1.41-3.455-2.617-6.91-4.329-10.167.202-1.48-3.22-1.382-3.926 0-.805 1.678-.704 3.356-.402 5.232.302 2.073.402 4.047.402 6.12 0 3.948.403 7.897.403 11.846-.403.394-.503.888-.1 1.382l.603.592c.906.69 3.524.099 3.524-1.284 0-4.145-.302-8.193-.403-12.339V36.04c.1.099.1.296.201.395.604 1.58 1.309 3.158 2.215 4.64.906 1.48 1.308 3.06 1.812 4.639-.202.197-.302.493-.202.69 0 .198.101.297.302.395.604.593 1.913.297 2.517 0 .302-.098.604-.296.805-.394.302-.198.906-.691.705-1.185 0-.099-.1-.197-.1-.296.503-1.283.704-2.566 1.006-3.949.302-1.382.805-2.764 1.309-4.145.1.592.1 1.283.201 1.875.201 2.567 0 5.034 0 7.601 0 .888.1 1.58.201 2.468.101.296.403 1.777.302 1.875-.604.593-.402 1.284.403 1.382.906.198 2.114-.098 2.819-.69 1.208-1.087.604-2.863.402-4.245-.604-2.37-.1-5.035-.1-7.404ZM52.556 40.384c-.101-1.974-.806-3.85-.806-5.824 0-2.27.202-4.54-.201-6.811-.1-.691-4.127.098-4.027 1.085.302 2.073.202 4.245.202 6.318 0 2.073.503 3.85.704 5.923.302 2.073-.1 4.146.101 6.219.1.987.805 2.764.1 3.554-.402.493 1.51.296 1.611.296.806-.099 1.812-.395 2.316-.987.704-.79.2-2.37.1-3.357-.201-2.27 0-4.343-.1-6.416ZM69.165 37.028c-2.114-2.764-5.94-.79-8.657-1.58-1.41-.395-1.41-2.27-1.41-3.356 0-1.382-.1-2.764-.301-4.146-.101-1.086 0-2.073.805-2.863.1-.098.906-.296.805-.296.403-.099.705-.099 1.108-.099 1.61-.098 4.73.198 4.127 2.468-.302.987 3.624.395 3.926-.592 1.208-4.54-7.45-3.652-9.865-3.06-2.215.592-4.732 1.875-4.832 4.343-.101 1.185.302 2.37.302 3.554.1 1.382-.202 2.764.302 4.146 1.107 2.961 5.637 1.58 7.851 1.777 3.926.296 2.718 5.429 2.819 7.897 0 1.283 1.208 3.455.201 4.442-.604.69-2.013.69-2.818.79-.806.098-2.215.296-2.819-.494-1.007-1.382.1-3.751-.1-5.43-.202-.986-4.228-.098-4.027.988.302 2.665-1.41 6.12 2.416 6.614 2.517.296 5.234-.198 7.65-.889a10.758 10.758 0 0 0 3.322-1.777c1.007-.888.705-2.369.403-3.553-.705-2.962.705-6.318-1.208-8.884ZM86.781 36.83c-.1-3.751-.705-7.502-.705-11.253 0-1.975-4.026-1.284-4.026.296 0 3.553.503 7.107.705 10.76v.197c-2.014 0-3.926.197-5.94.197.202-4.64-.604-9.18-.402-13.82 0-.592-3.926-.098-4.027 1.086-.201 4.442.604 8.885.504 13.327-.101 2.171-.202 4.244-.302 6.416 0 1.086.2 2.172.302 3.258.1.987.503 2.369.2 3.257-.2.79 3.625.296 3.927-.69.503-1.778-.202-4.048-.403-5.825-.201-1.678 0-3.455.1-5.232 2.014-.098 4.128-.296 6.141 0l.302 4.146c.1 1.185.202 2.27.202 3.455 0 .987.1 2.468-.202 3.455-.805 2.073 3.222 1.876 3.826.395.704-1.876.503-4.146.402-6.12-.201-2.37-.604-4.837-.604-7.305ZM103.894 41.371c-.906-2.764-2.416-5.133-3.624-7.798 1.007-1.974 2.013-3.85 3.02-5.824.805-1.777 1.51-3.85 3.121-5.035.604-.493.604-.888-.302-.987-.906-.099-2.114.198-2.819.691-1.51 1.185-2.416 2.567-3.221 4.245-1.007 2.073-1.913 4.047-3.02 6.021-.1.099-.202.297-.202.395-.503.296-.805.79-.603 1.283-.806 1.58-1.611 3.06-2.517 4.64-.302-5.528-1.007-11.056-1.208-16.584 0-1.283-4.027-.493-4.027 1.086.202 6.811 1.208 13.622 1.31 20.532v.1c-.303.295-.202.493.1.591 0 1.777-.1 3.455-.202 5.232-.503.79.504 1.086 1.108 1.086h.1c.705 0 2.618-.395 2.718-1.382.202-2.073.302-4.146.202-6.219 1.61-1.678 2.919-3.652 4.127-5.627.805 1.481 1.51 2.962 2.013 4.541.906 2.764 2.315 5.232 3.221 7.996.504 1.777 4.53.691 4.027-1.086-.906-2.665-2.315-5.232-3.322-7.897ZM127.852 36.732c-.201-.79-1.409-.889-2.315-.79v-.987c-.1-2.666-.201-5.33-.402-7.996-.202-2.468-1.611-3.356-4.027-3.258-2.416.1-5.335.494-7.651 1.382-2.617.988-4.127 2.962-4.63 5.627-.604 2.962.201 6.219.403 9.18.201 3.455.1 7.009.1 10.464 0 .592 4.027 0 4.027-1.086v-8.292c0-.79-.101-1.58-.101-2.468 1.409-.592 3.725 0 5.134.1 1.107.098 2.215-.198 3.322-.297 0 2.27.101 4.64.201 6.91 0 1.185.504 3.554-.402 4.54-.403.494 1.51.297 1.61.297.806-.099 1.812-.395 2.316-1.086 1.006-1.086.503-3.751.402-5.133-.101-1.876-.101-3.85-.101-5.725 1.007.197 2.316-.593 2.114-1.382Zm-14.898-.198c-.101-1.283-.201-2.468-.302-3.751-.201-2.37.101-5.528 2.315-7.009.604-.395 1.712-.296 2.416-.395 1.007-.197 2.014-.394 2.92.198 1.208.79.906 3.652.906 4.837 0 1.974.201 3.948.302 6.021-.604.1-1.108.1-1.712.1-2.315-.1-4.63-.396-6.845 0ZM49.133 24.984c.503-.098 1.107-.197 1.51-.493.1-.099.201-.099.302-.198.503-.296 1.006-.79.704-1.382-.503-1.085-.402-2.27-.402-3.356 0-.987-1.007-1.283-1.812-1.184-.705.098-2.215.592-2.215 1.48 0 .987-.1 1.975.1 2.962 0 .098-.1.197-.1.395-.1.197 0 .394.1.592v.395c.102.197.202.395.404.493.402.296.906.296 1.409.296Z" fill="#fff"/></svg>