<svg width="102" height="78" fill="none" xmlns="http://www.w3.org/2000/svg"><path d="M98.249 18.336s-.913-7.091-3.853-10.232c-3.65-4.052-7.807-4.153-9.632-4.356C71.278 2.735 51 2.735 51 2.735H50.9s-20.279 0-33.764 1.013c-1.926.203-5.982.304-9.632 4.356-2.839 3.14-3.853 10.232-3.853 10.232s-.912 8.307-.912 16.613v7.8c0 8.307.912 16.614.912 16.614s.913 7.091 3.853 10.232c3.65 4.052 8.517 3.95 10.646 4.356C25.855 74.76 51 74.964 51 74.964s20.278 0 33.764-1.013c1.926-.203 5.982-.304 9.632-4.356 2.839-3.14 3.853-10.232 3.853-10.232s.912-8.307.912-16.613v-7.8c0-8.307-.912-16.614-.912-16.614Z" fill="#63D1BB"/><path d="M50.899 77.8c-1.014 0-25.348-.304-33.054-1.013h-.203c-.304-.101-.71-.101-1.115-.203-2.535-.303-7.3-.911-10.95-5.065-3.448-3.647-4.462-10.94-4.563-11.75C1.014 59.463 0 51.157 0 42.85v-7.8c0-8.409.913-16.614.913-16.918v-.101c.1-.81 1.216-8.003 4.562-11.751 4.056-4.458 8.618-4.964 10.85-5.167.202 0 .405 0 .506-.101h.101C30.418 0 50.696 0 50.9 0H51c.203 0 20.481 0 33.966 1.013h.102c.202 0 .304 0 .507.101 2.23.203 6.793.71 10.849 5.167 3.447 3.647 4.461 10.94 4.562 11.75 0 .305 1.014 8.611 1.014 17.02v7.8c0 8.408-.913 16.613-1.014 16.917v.102c-.101.81-1.217 8.104-4.563 11.75-4.055 4.458-8.618 4.964-10.849 5.167-.202 0-.405 0-.506.101h-.102c-13.485.912-33.865.912-34.067.912Zm-32.344-6.483c7.604.709 31.634 1.013 32.445 1.013.71 0 20.38 0 33.46-1.013.202 0 .405 0 .608-.102 1.825-.202 4.664-.506 7.3-3.343 1.825-2.026 2.94-6.99 3.143-8.712.101-.506.913-8.509.913-16.31v-7.8c0-7.901-.913-15.803-1.015-16.31-.304-2.43-1.419-6.888-3.143-8.61-2.636-2.938-5.475-3.14-7.3-3.343-.203 0-.405 0-.608-.101C71.076 5.673 51.1 5.673 50.898 5.673h-.1c-.204 0-20.28 0-33.46 1.013-.203 0-.406 0-.608.101-1.825.203-4.664.507-7.3 3.343-1.826 2.026-2.94 6.99-3.144 8.712-.101.608-.912 8.51-.912 16.31v7.8c0 7.8.912 15.803.912 16.31.304 2.431 1.42 6.888 3.143 8.61 2.332 2.634 5.374 3.04 7.605 3.343.608-.1 1.014 0 1.52.102Z" fill="#fff"/><path d="M38.834 20.767v36.165L69.048 38.9 38.834 20.767Z" fill="#fff"/></svg>