<svg width="768" height="17" fill="none" xmlns="http://www.w3.org/2000/svg"><path d="M770 17c-6.042 0-9.197-3.4-11.748-6.135-2.282-2.439-3.96-4.213-7.518-4.213-3.625 0-5.237 1.774-7.519 4.213C740.664 13.6 737.509 17 731.467 17c-6.042 0-9.197-3.4-11.748-6.135-2.282-2.439-3.96-4.213-7.518-4.213s-5.237 1.774-7.519 4.213C702.131 13.6 698.976 17 692.934 17c-6.042 0-9.197-3.4-11.748-6.135-2.282-2.439-3.96-4.213-7.518-4.213-3.625 0-5.236 1.774-7.519 4.213C663.598 13.6 660.443 17 654.401 17c-6.041 0-9.196-3.4-11.747-6.135-2.283-2.439-3.961-4.213-7.519-4.213-3.625 0-5.236 1.774-7.519 4.213C624.797 13.6 621.642 17 615.6 17s-9.197-3.4-11.748-6.135c-2.282-2.439-3.961-4.213-7.518-4.213-3.626 0-5.237 1.774-7.519 4.213C586.264 13.6 583.109 17 577.067 17c-6.042 0-9.197-3.4-11.748-6.135-2.282-2.439-3.96-4.213-7.518-4.213-3.625 0-5.236 1.774-7.519 4.213C547.597 13.6 544.442 17 538.4 17s-9.197-3.4-11.748-6.135c-2.282-2.439-3.961-4.213-7.518-4.213-3.626 0-5.237 1.774-7.519 4.213C509.064 13.6 505.909 17 499.867 17c-6.042 0-9.197-3.4-11.748-6.135-2.282-2.439-3.96-4.213-7.518-4.213s-5.236 1.774-7.519 4.213C470.464 13.6 467.242 17 461.2 17s-9.197-3.4-11.748-6.135c-2.282-2.439-3.961-4.213-7.518-4.213-3.625 0-5.237 1.774-7.519 4.213C431.864 13.6 428.709 17 422.667 17c-6.042 0-9.197-3.4-11.748-6.135-2.282-2.439-3.96-4.213-7.518-4.213-3.625 0-5.236 1.774-7.519 4.213C393.331 13.6 390.176 17 384.134 17c-6.041 0-9.197-3.4-11.748-6.135-2.282-2.439-3.96-4.213-7.518-4.213s-5.236 1.774-7.519 4.213C354.798 13.6 351.643 17 345.601 17c-6.041 0-9.196-3.4-11.747-6.135-2.283-2.439-3.961-4.213-7.519-4.213-3.625 0-5.236 1.774-7.519 4.213C316.265 13.6 313.11 17 307.069 17c-6.042 0-9.197-3.4-11.748-6.135-2.283-2.439-3.961-4.213-7.519-4.213-3.625 0-5.236 1.774-7.519 4.213C277.733 13.6 274.577 17 268.536 17c-6.042 0-9.197-3.4-11.748-6.135-2.283-2.439-3.961-4.213-7.519-4.213-3.625 0-5.236 1.774-7.518 4.213C239.2 13.6 236.045 17 230.003 17c-6.042 0-9.197-3.4-11.748-6.135-2.282-2.439-3.961-4.213-7.519-4.213-3.558 0-5.236 1.774-7.518 4.213C200.667 13.6 197.512 17 191.47 17c-6.042 0-9.197-3.4-11.748-6.135-2.282-2.439-3.961-4.213-7.519-4.213-3.625 0-5.236 1.774-7.518 4.213C162.134 13.6 158.979 17 152.937 17c-6.042 0-9.197-3.4-11.748-6.135-2.282-2.439-3.96-4.213-7.518-4.213-3.625 0-5.237 1.774-7.519 4.213C123.601 13.6 120.446 17 114.404 17c-6.042 0-9.197-3.4-11.748-6.135-2.282-2.439-3.96-4.213-7.518-4.213-3.625 0-5.236 1.774-7.519 4.213C84.464 13.6 81.242 17 75.2 17c-6.042 0-9.197-3.4-11.748-6.135-2.282-2.439-3.96-4.213-7.518-4.213-3.625 0-5.237 1.774-7.519 4.213C45.864 13.6 42.709 17 36.667 17c-6.042 0-9.197-3.4-11.748-6.135-2.35-2.439-4.027-4.213-7.585-4.213-3.625 0-5.237 1.774-7.519 4.213C7.197 13.6 4.042 17-2 17v-6.652c3.625 0 5.236-1.774 7.519-4.213C8.069 3.4 11.225 0 17.334 0c6.041 0 9.196 3.4 11.747 6.135 2.283 2.439 3.961 4.213 7.519 4.213 3.625 0 5.236-1.774 7.519-4.213C46.669 3.4 49.892 0 55.934 0c6.041 0 9.196 3.4 11.747 6.135 2.283 2.439 3.961 4.213 7.519 4.213 3.625 0 5.236-1.774 7.519-4.213C85.269 3.4 88.425 0 94.466 0c6.042 0 9.197 3.4 11.748 6.135 2.283 2.439 3.961 4.213 7.519 4.213 3.625 0 5.236-1.774 7.518-4.213C123.802 3.4 126.958 0 132.999 0c6.042 0 9.197 3.4 11.748 6.135 2.283 2.439 3.961 4.213 7.519 4.213 3.625 0 5.236-1.774 7.518-4.213C162.335 3.4 165.49 0 171.532 0c6.042 0 9.197 3.4 11.748 6.135 2.282 2.439 3.961 4.213 7.519 4.213 3.625 0 5.236-1.774 7.518-4.213C200.868 3.4 204.023 0 210.065 0c6.042 0 9.197 3.4 11.748 6.135 2.282 2.439 3.961 4.213 7.518 4.213 3.626 0 5.237-1.774 7.519-4.213C239.401 3.4 242.556 0 248.598 0c6.042 0 9.197 3.4 11.748 6.135 2.282 2.439 3.96 4.213 7.518 4.213s5.237-1.774 7.519-4.213C277.934 3.4 281.089 0 287.131 0c6.042 0 9.197 3.4 11.748 6.135 2.282 2.439 3.96 4.213 7.518 4.213 3.625 0 5.236-1.774 7.519-4.213C316.467 3.4 319.622 0 325.664 0c6.041 0 9.197 3.4 11.747 6.135 2.283 2.439 3.961 4.213 7.519 4.213 3.625 0 5.236-1.774 7.519-4.213C355 3.4 358.155 0 364.197 0c6.041 0 9.196 3.4 11.747 6.135 2.283 2.439 3.961 4.213 7.519 4.213 3.625 0 5.236-1.774 7.519-4.213C393.533 3.4 396.688 0 402.729 0c6.042 0 9.197 3.4 11.748 6.135 2.283 2.439 3.961 4.213 7.519 4.213 3.625 0 5.236-1.774 7.518-4.213C432.065 3.4 435.221 0 441.262 0c6.042 0 9.197 3.4 11.748 6.135 2.283 2.439 3.961 4.213 7.519 4.213 3.625 0 5.236-1.774 7.518-4.213C470.598 3.4 473.753 0 479.795 0c6.042 0 9.197 3.4 11.748 6.135 2.282 2.439 3.961 4.213 7.519 4.213 3.625 0 5.236-1.774 7.518-4.213C509.131 3.4 512.286 0 518.328 0c6.042 0 9.197 3.4 11.748 6.135 2.282 2.439 3.96 4.213 7.518 4.213 3.625 0 5.237-1.774 7.519-4.213C548.47 3.4 551.625 0 557.734 0c6.041 0 9.196 3.4 11.747 6.135 2.283 2.439 3.961 4.213 7.519 4.213 3.558 0 5.236-1.774 7.519-4.213C587.07 3.4 590.225 0 596.266 0c6.042 0 9.197 3.4 11.748 6.135 2.283 2.439 3.961 4.213 7.519 4.213 3.558 0 5.236-1.774 7.518-4.213C625.67 3.4 628.825 0 634.934 0c6.108 0 9.196 3.4 11.747 6.135 2.283 2.439 3.961 4.213 7.519 4.213 3.558 0 5.236-1.774 7.519-4.213C664.27 3.4 667.425 0 673.466 0c6.042 0 9.197 3.4 11.748 6.135 2.283 2.439 3.961 4.213 7.519 4.213 3.625 0 5.236-1.774 7.518-4.213C702.802 3.4 705.958 0 711.999 0c6.042 0 9.197 3.4 11.748 6.135 2.283 2.439 3.961 4.213 7.519 4.213 3.558 0 5.236-1.774 7.518-4.213C741.335 3.4 744.49 0 750.532 0c6.042 0 9.197 3.4 11.748 6.135 2.282 2.439 3.961 4.213 7.519 4.213V17H770Z" fill="#F1F1F1"/></svg>