<svg width="1052" height="23" fill="none" xmlns="http://www.w3.org/2000/svg"><path d="M1052 23c-8.23 0-12.53-4.6-16.01-8.3-3.11-3.3-5.4-5.7-10.24-5.7-4.94 0-7.14 2.4-10.25 5.7-3.48 3.7-7.78 8.3-16.009 8.3-8.233 0-12.532-4.6-16.008-8.3-3.111-3.3-5.397-5.7-10.246-5.7-4.848 0-7.135 2.4-10.245 5.7-3.477 3.7-7.776 8.3-16.009 8.3s-12.533-4.6-16.009-8.3c-3.11-3.3-5.397-5.7-10.245-5.7-4.94 0-7.136 2.4-10.246 5.7-3.476 3.7-7.776 8.3-16.009 8.3s-12.532-4.6-16.008-8.3c-3.111-3.3-5.398-5.7-10.246-5.7-4.94 0-7.135 2.4-10.245 5.7-3.842 3.7-8.142 8.3-16.375 8.3s-12.533-4.6-16.009-8.3c-3.11-3.3-5.397-5.7-10.245-5.7-4.94 0-7.136 2.4-10.246 5.7-3.476 3.7-7.776 8.3-16.009 8.3s-12.532-4.6-16.008-8.3c-3.111-3.3-5.397-5.7-10.246-5.7-4.94 0-7.135 2.4-10.245 5.7-3.66 3.7-7.959 8.3-16.192 8.3s-12.533-4.6-16.009-8.3c-3.11-3.3-5.397-5.7-10.245-5.7-4.94 0-7.136 2.4-10.246 5.7-3.476 3.7-7.776 8.3-16.009 8.3s-12.532-4.6-16.008-8.3c-3.111-3.3-5.397-5.7-10.246-5.7-4.848 0-7.135 2.4-10.245 5.7-3.568 3.7-7.959 8.3-16.192 8.3s-12.533-4.6-16.009-8.3c-3.11-3.3-5.397-5.7-10.245-5.7-4.94 0-7.136 2.4-10.246 5.7-3.476 3.7-7.776 8.3-16.009 8.3s-12.532-4.6-16.008-8.3c-3.11-3.3-5.397-5.7-10.246-5.7-4.94 0-7.135 2.4-10.245 5.7-3.477 3.7-7.776 8.3-16.009 8.3s-12.533-4.6-16.009-8.3c-3.11-3.3-5.397-5.7-10.245-5.7-4.849 0-7.136 2.4-10.246 5.7-3.476 3.7-7.776 8.3-16.009 8.3s-12.532-4.6-16.008-8.3c-3.111-3.3-5.397-5.7-10.246-5.7-4.94 0-7.135 2.4-10.245 5.7-3.477 3.7-7.776 8.3-16.009 8.3s-12.533-4.6-16.009-8.3c-3.11-3.3-5.397-5.7-10.245-5.7-4.94 0-7.136 2.4-10.246 5.7-3.476 3.7-7.776 8.3-16.009 8.3s-12.532-4.6-16.008-8.3c-3.111-3.3-5.398-5.7-10.246-5.7-4.94 0-7.135 2.4-10.245 5.7-3.477 3.7-7.776 8.3-16.009 8.3s-12.533-4.6-16.009-8.3c-3.11-3.3-5.397-5.7-10.245-5.7-4.849 0-7.136 2.4-10.246 5.7-3.476 3.7-7.776 8.3-16.009 8.3s-12.532-4.6-16.008-8.3c-3.111-3.3-5.398-5.7-10.246-5.7-4.94 0-7.135 2.4-10.245 5.7-3.477 3.7-7.776 8.3-16.009 8.3s-12.533-4.6-16.009-8.3c-3.11-3.3-5.397-5.7-10.245-5.7-4.94 0-7.136 2.4-10.246 5.7-3.476 3.7-7.776 8.3-16.009 8.3s-12.532-4.6-16.008-8.3c-3.111-3.3-5.398-5.7-10.246-5.7-4.94 0-7.135 2.4-10.246 5.7-4.299 3.7-8.69 8.3-16.923 8.3-8.233 0-12.532-4.6-16.009-8.3-3.11-3.3-5.397-5.7-10.245-5.7-4.94 0-7.136 2.4-10.246 5.7-3.476 3.7-7.776 8.3-16.009 8.3s-12.532-4.6-16.008-8.3C33.48 11.4 31.194 9 26.346 9c-4.94 0-7.136 2.4-10.246 5.7C12.532 18.4 8.233 23 0 23v-9c4.94 0 7.135-2.4 10.246-5.7C13.722 4.6 18.02 0 26.346 0c8.233 0 12.532 4.6 16.008 8.3 3.11 3.3 5.398 5.7 10.246 5.7 4.94 0 7.135-2.4 10.246-5.7 3.476-3.7 7.867-8.3 16.1-8.3s12.532 4.6 16.008 8.3c3.11 3.3 5.398 5.7 10.246 5.7 4.94 0 7.135-2.4 10.246-5.7 3.476-3.7 7.775-8.3 16.008-8.3 8.233 0 12.533 4.6 16.009 8.3 3.11 3.3 5.397 5.7 10.246 5.7 4.939 0 7.135-2.4 10.245-5.7C171.43 4.6 175.73 0 183.963 0s12.532 4.6 16.008 8.3c3.111 3.3 5.398 5.7 10.246 5.7 4.94 0 7.135-2.4 10.246-5.7 3.476-3.7 7.775-8.3 16.008-8.3 8.233 0 12.533 4.6 16.009 8.3 3.11 3.3 5.397 5.7 10.246 5.7 4.939 0 7.135-2.4 10.245-5.7 3.476-3.7 7.776-8.3 16.009-8.3s12.532 4.6 16.008 8.3c3.111 3.3 5.398 5.7 10.246 5.7 4.94 0 7.135-2.4 10.246-5.7 3.476-3.7 7.775-8.3 16.008-8.3 8.233 0 12.533 4.6 16.009 8.3 3.11 3.3 5.397 5.7 10.246 5.7 4.848 0 7.135-2.4 10.245-5.7 3.476-3.7 7.776-8.3 16.009-8.3s12.532 4.6 16.009 8.3c3.11 3.3 5.397 5.7 10.245 5.7 4.94 0 7.135-2.4 10.246-5.7 3.476-3.7 7.775-8.3 16.008-8.3 8.233 0 12.533 4.6 16.009 8.3 3.11 3.3 5.397 5.7 10.246 5.7 4.939 0 7.135-2.4 10.245-5.7 3.476-3.7 7.776-8.3 16.009-8.3s12.532 4.6 16.009 8.3c3.11 3.3 5.397 5.7 10.245 5.7 4.94 0 7.136-2.4 10.246-5.7 3.476-3.7 7.775-8.3 16.008-8.3 8.233 0 12.533 4.6 16.009 8.3 3.11 3.3 5.397 5.7 10.246 5.7 4.939 0 7.135-2.4 10.245-5.7 3.476-3.7 7.776-8.3 16.009-8.3s12.532 4.6 16.009 8.3c3.11 3.3 5.397 5.7 10.245 5.7 4.94 0 7.136-2.4 10.246-5.7 3.476-3.7 7.775-8.3 16.008-8.3 8.234 0 12.533 4.6 16.009 8.3 3.11 3.3 5.397 5.7 10.246 5.7 4.94 0 7.135-2.4 10.245-5.7 3.476-3.7 7.776-8.3 16.009-8.3s12.533 4.6 16.009 8.3c3.11 3.3 5.397 5.7 10.245 5.7 4.94 0 7.136-2.4 10.246-5.7 4.574-3.7 8.873-8.3 17.198-8.3 8.233 0 12.532 4.6 16.008 8.3 3.111 3.3 5.398 5.7 10.246 5.7 4.848 0 7.135-2.4 10.246-5.7 3.476-3.7 7.775-8.3 16.008-8.3 8.233 0 12.533 4.6 16.009 8.3 3.11 3.3 5.397 5.7 10.246 5.7 4.848 0 7.135-2.4 10.245-5.7 3.568-3.7 7.867-8.3 16.192-8.3 8.324 0 12.532 4.6 16.008 8.3 3.111 3.3 5.398 5.7 10.246 5.7 4.848 0 7.135-2.4 10.246-5.7 3.476-3.7 7.775-8.3 16.008-8.3 8.233 0 12.533 4.6 16.009 8.3 3.11 3.3 5.397 5.7 10.245 5.7 4.94 0 7.136-2.4 10.246-5.7C960.43 4.6 964.73 0 972.963 0s12.532 4.6 16.008 8.3c3.111 3.3 5.398 5.7 10.246 5.7 4.853 0 7.133-2.4 10.243-5.7 3.48-3.7 7.78-8.3 16.01-8.3s12.53 4.6 16.01 8.3c3.11 3.3 5.4 5.7 10.25 5.7v9h.27Z" fill="#F1F1F1"/></svg>