<svg width="768" height="24" fill="none" xmlns="http://www.w3.org/2000/svg"><path d="M749.784 0c-9.642 0-9.642 9.882-19.217 9.882S720.925 0 711.35 0c-9.574 0-9.641 9.882-19.216 9.882-9.642 0-9.642-9.882-19.284-9.882-9.641 0-9.641 9.882-19.216 9.882-9.642 0-9.642-9.882-19.217-9.882-9.641 0-9.641 9.882-19.216 9.882-9.575 0-9.843-9.882-19.418-9.882-9.641 0-9.641 9.882-19.216 9.882-9.575 0-9.709-9.882-19.284-9.882-9.641 0-9.641 9.882-19.216 9.882-9.642 0-9.642-9.882-19.284-9.882-9.641 0-9.641 9.882-19.216 9.882-9.642 0-9.642-9.882-19.217-9.882-9.574 0-9.708 9.882-19.35 9.882-9.642 0-9.642-9.882-19.217-9.882-9.641 0-9.641 9.882-19.216 9.882-9.642 0-9.642-9.882-19.284-9.882-9.641 0-9.641 9.882-19.216 9.882-9.642 0-9.642-9.882-19.217-9.882-9.641 0-9.641 9.882-19.216 9.882-9.642 0-9.642-9.882-19.217-9.882-9.641 0-9.641 9.882-19.283 9.882-9.642 0-9.642-9.882-19.284-9.882-9.641 0-9.641 9.882-19.283 9.882-9.642 0-9.642-9.882-19.284-9.882-9.641 0-9.641 9.882-19.283 9.882-9.642 0-9.642-9.882-19.283-9.882-9.642 0-9.642 9.882-19.284 9.882S181.791 0 172.15 0c-9.642 0-9.642 9.882-19.217 9.882-9.642 0-9.642-9.882-19.283-9.882-9.642 0-9.642 9.882-19.284 9.882S104.724 0 95.083 0C85.44 0 85.44 9.882 75.799 9.882S66.157 0 56.516 0C47.142 0 47.142 9.882 37.5 9.882 27.858 9.882 27.858 0 18.284 0 8.709 0 8.642 9.882-1 9.882V24h770V9.882c-9.642 0-9.642-9.882-19.216-9.882Z" fill="#fff"/></svg>