<svg width="1150" height="34" viewBox="0 0 1150 34" fill="none" xmlns="http://www.w3.org/2000/svg">
<path d="M1168.8 0C1153.15 0 1153.15 14 1137.61 14C1122.07 14 1121.96 0 1106.41 0C1090.87 0 1090.76 14 1075.22 14C1059.57 14 1059.57 0 1043.91 0C1028.26 0 1028.26 14 1012.72 14C997.065 14 997.065 0 981.522 0C965.87 0 965.87 14 950.326 14C934.783 14 934.348 0 918.804 0C903.152 0 903.152 14 887.609 14C872.065 14 871.848 0 856.304 0C840.652 0 840.652 14 825.109 14C809.456 14 809.456 0 793.804 0C778.152 0 778.152 14 762.609 14C746.956 14 746.957 0 731.413 0C715.87 0 715.652 14 700 14C684.348 14 684.348 0 668.804 0C653.152 0 653.152 14 637.609 14C621.956 14 621.956 0 606.304 0C590.652 0 590.652 14 575.109 14C559.456 14 559.457 0 543.913 0C528.261 0 528.261 14 512.717 14C497.065 14 497.065 0 481.522 0C465.87 0 465.87 14 450.217 14C434.565 14 434.565 0 418.913 0C403.261 0 403.261 14 387.609 14C371.957 14 371.957 0 356.304 0C340.652 0 340.652 14 325 14C309.348 14 309.348 0 293.696 0C278.043 0 278.043 14 262.391 14C246.739 14 246.739 0 231.087 0C215.435 0 215.435 14 199.891 14C184.239 14 184.239 0 168.587 0C152.935 0 152.935 14 137.283 14C121.63 14 121.63 0 105.978 0C90.3261 0 90.3261 14 74.6739 14C59.0217 14 59.0217 0 43.3696 0C28.1522 0 28.1522 14 12.5 14C-3.15217 14 -3.15218 0 -18.6957 0C-34.2391 0 -34.3478 14 -50 14V34H1200V14C1184.35 14 1184.35 0 1168.8 0Z" fill="white"/>
</svg>
