<svg width="1052" height="23" viewBox="0 0 1052 23" fill="none" xmlns="http://www.w3.org/2000/svg">
<path d="M1052 23C1043.77 23 1039.47 18.4 1035.99 14.7C1032.88 11.4 1030.59 9 1025.75 9C1020.81 9 1018.61 11.4 1015.5 14.7C1012.02 18.4 1007.72 23 999.491 23C991.258 23 986.959 18.4 983.483 14.7C980.372 11.4 978.086 9 973.237 9C968.389 9 966.102 11.4 962.992 14.7C959.515 18.4 955.216 23 946.983 23C938.75 23 934.45 18.4 930.974 14.7C927.864 11.4 925.577 9 920.729 9C915.789 9 913.593 11.4 910.483 14.7C907.007 18.4 902.707 23 894.474 23C886.241 23 881.942 18.4 878.466 14.7C875.355 11.4 873.068 9 868.22 9C863.28 9 861.085 11.4 857.975 14.7C854.133 18.4 849.833 23 841.6 23C833.367 23 829.067 18.4 825.591 14.7C822.481 11.4 820.194 9 815.346 9C810.406 9 808.21 11.4 805.1 14.7C801.624 18.4 797.324 23 789.091 23C780.858 23 776.559 18.4 773.083 14.7C769.972 11.4 767.686 9 762.837 9C757.897 9 755.702 11.4 752.592 14.7C748.932 18.4 744.633 23 736.4 23C728.167 23 723.867 18.4 720.391 14.7C717.281 11.4 714.994 9 710.146 9C705.206 9 703.01 11.4 699.9 14.7C696.424 18.4 692.124 23 683.891 23C675.658 23 671.359 18.4 667.883 14.7C664.772 11.4 662.486 9 657.637 9C652.789 9 650.502 11.4 647.392 14.7C643.824 18.4 639.433 23 631.2 23C622.967 23 618.667 18.4 615.191 14.7C612.081 11.4 609.794 9 604.946 9C600.006 9 597.81 11.4 594.7 14.7C591.224 18.4 586.924 23 578.691 23C570.458 23 566.159 18.4 562.683 14.7C559.573 11.4 557.286 9 552.437 9C547.497 9 545.302 11.4 542.192 14.7C538.715 18.4 534.416 23 526.183 23C517.95 23 513.65 18.4 510.174 14.7C507.064 11.4 504.777 9 499.929 9C495.08 9 492.793 11.4 489.683 14.7C486.207 18.4 481.907 23 473.674 23C465.441 23 461.142 18.4 457.666 14.7C454.555 11.4 452.269 9 447.42 9C442.48 9 440.285 11.4 437.175 14.7C433.698 18.4 429.399 23 421.166 23C412.933 23 408.633 18.4 405.157 14.7C402.047 11.4 399.76 9 394.912 9C389.972 9 387.776 11.4 384.666 14.7C381.19 18.4 376.89 23 368.657 23C360.424 23 356.125 18.4 352.649 14.7C349.538 11.4 347.251 9 342.403 9C337.463 9 335.268 11.4 332.158 14.7C328.681 18.4 324.382 23 316.149 23C307.916 23 303.616 18.4 300.14 14.7C297.03 11.4 294.743 9 289.895 9C285.046 9 282.759 11.4 279.649 14.7C276.173 18.4 271.873 23 263.64 23C255.407 23 251.108 18.4 247.632 14.7C244.521 11.4 242.234 9 237.386 9C232.446 9 230.251 11.4 227.141 14.7C223.664 18.4 219.365 23 211.132 23C202.899 23 198.599 18.4 195.123 14.7C192.013 11.4 189.726 9 184.878 9C179.938 9 177.742 11.4 174.632 14.7C171.156 18.4 166.856 23 158.623 23C150.39 23 146.091 18.4 142.615 14.7C139.504 11.4 137.217 9 132.369 9C127.429 9 125.234 11.4 122.123 14.7C117.824 18.4 113.433 23 105.2 23C96.967 23 92.6675 18.4 89.1913 14.7C86.081 11.4 83.7941 9 78.9457 9C74.0059 9 71.8104 11.4 68.7002 14.7C65.224 18.4 60.9245 23 52.6915 23C44.4584 23 40.159 18.4 36.6828 14.7C33.481 11.4 31.1941 9 26.3457 9C21.4059 9 19.2104 11.4 16.1002 14.7C12.5325 18.4 8.23304 23 0 23V14C4.93983 14 7.1353 11.6 10.2456 8.3C13.7217 4.6 18.0212 0 26.3457 0C34.5788 0 38.8783 4.6 42.3544 8.3C45.4647 11.6 47.7517 14 52.6 14C57.5398 14 59.7353 11.6 62.8456 8.3C66.3217 4.6 70.7127 0 78.9457 0C87.1788 0 91.4783 4.6 94.9544 8.3C98.0647 11.6 100.352 14 105.2 14C110.14 14 112.335 11.6 115.446 8.3C118.922 4.6 123.221 0 131.454 0C139.687 0 143.987 4.6 147.463 8.3C150.573 11.6 152.86 14 157.709 14C162.648 14 164.844 11.6 167.954 8.3C171.43 4.6 175.73 0 183.963 0C192.196 0 196.495 4.6 199.971 8.3C203.082 11.6 205.369 14 210.217 14C215.157 14 217.352 11.6 220.463 8.3C223.939 4.6 228.238 0 236.471 0C244.704 0 249.004 4.6 252.48 8.3C255.59 11.6 257.877 14 262.726 14C267.665 14 269.861 11.6 272.971 8.3C276.447 4.6 280.747 0 288.98 0C297.213 0 301.512 4.6 304.988 8.3C308.099 11.6 310.386 14 315.234 14C320.174 14 322.369 11.6 325.48 8.3C328.956 4.6 333.255 0 341.488 0C349.721 0 354.021 4.6 357.497 8.3C360.607 11.6 362.894 14 367.743 14C372.591 14 374.878 11.6 377.988 8.3C381.464 4.6 385.764 0 393.997 0C402.23 0 406.529 4.6 410.006 8.3C413.116 11.6 415.403 14 420.251 14C425.191 14 427.386 11.6 430.497 8.3C433.973 4.6 438.272 0 446.505 0C454.738 0 459.038 4.6 462.514 8.3C465.624 11.6 467.911 14 472.76 14C477.699 14 479.895 11.6 483.005 8.3C486.481 4.6 490.781 0 499.014 0C507.247 0 511.546 4.6 515.023 8.3C518.133 11.6 520.42 14 525.268 14C530.208 14 532.404 11.6 535.514 8.3C538.99 4.6 543.289 0 551.522 0C559.755 0 564.055 4.6 567.531 8.3C570.641 11.6 572.928 14 577.777 14C582.716 14 584.912 11.6 588.022 8.3C591.498 4.6 595.798 0 604.031 0C612.264 0 616.563 4.6 620.04 8.3C623.15 11.6 625.437 14 630.285 14C635.225 14 637.421 11.6 640.531 8.3C644.007 4.6 648.306 0 656.539 0C664.773 0 669.072 4.6 672.548 8.3C675.658 11.6 677.945 14 682.794 14C687.734 14 689.929 11.6 693.039 8.3C696.515 4.6 700.815 0 709.048 0C717.281 0 721.581 4.6 725.057 8.3C728.167 11.6 730.454 14 735.302 14C740.242 14 742.438 11.6 745.548 8.3C750.122 4.6 754.421 0 762.746 0C770.979 0 775.278 4.6 778.754 8.3C781.865 11.6 784.152 14 789 14C793.848 14 796.135 11.6 799.246 8.3C802.722 4.6 807.021 0 815.254 0C823.487 0 827.787 4.6 831.263 8.3C834.373 11.6 836.66 14 841.509 14C846.357 14 848.644 11.6 851.754 8.3C855.322 4.6 859.621 0 867.946 0C876.27 0 880.478 4.6 883.954 8.3C887.065 11.6 889.352 14 894.2 14C899.048 14 901.335 11.6 904.446 8.3C907.922 4.6 912.221 0 920.454 0C928.687 0 932.987 4.6 936.463 8.3C939.573 11.6 941.86 14 946.708 14C951.648 14 953.844 11.6 956.954 8.3C960.43 4.6 964.73 0 972.963 0C981.196 0 985.495 4.6 988.971 8.3C992.082 11.6 994.369 14 999.217 14C1004.07 14 1006.35 11.6 1009.46 8.3C1012.94 4.6 1017.24 0 1025.47 0C1033.7 0 1038 4.6 1041.48 8.3C1044.59 11.6 1046.88 14 1051.73 14V23H1052Z" fill="#F1F1F1"/>
</svg>
